<svg xmlns="http://www.w3.org/2000/svg" width="471" height="108" viewBox="0 0 471 108" fill="none"><path d="M217.882 84C213.358 84 209.733 82.898 207.007 80.694C204.281 78.49 202.918 74.575 202.918 68.949V50.157H195.523V40.848H202.918L204.223 29.277H214.054V40.848H225.712V50.157H214.054V69.036C214.054 71.124 214.489 72.574 215.359 73.386C216.287 74.14 217.853 74.517 220.057 74.517H225.451V84H217.882ZM253.108 85.044C249.28 85.044 245.916 84.435 243.016 83.217C240.116 81.941 237.796 80.201 236.056 77.997C234.316 75.793 233.272 73.241 232.924 70.341H244.147C244.495 72.023 245.423 73.473 246.931 74.691C248.497 75.851 250.498 76.431 252.934 76.431C255.37 76.431 257.139 75.938 258.241 74.952C259.401 73.966 259.981 72.835 259.981 71.559C259.981 69.703 259.169 68.456 257.545 67.818C255.921 67.122 253.659 66.455 250.759 65.817C248.903 65.411 247.018 64.918 245.104 64.338C243.19 63.758 241.421 63.033 239.797 62.163C238.231 61.235 236.955 60.075 235.969 58.683C234.983 57.233 234.49 55.464 234.49 53.376C234.49 49.548 235.998 46.329 239.014 43.719C242.088 41.109 246.38 39.804 251.89 39.804C256.994 39.804 261.054 40.993 264.07 43.371C267.144 45.749 268.971 49.026 269.551 53.202H259.024C258.386 50.012 255.979 48.417 251.803 48.417C249.715 48.417 248.091 48.823 246.931 49.635C245.829 50.447 245.278 51.462 245.278 52.68C245.278 53.956 246.119 54.971 247.801 55.725C249.483 56.479 251.716 57.175 254.5 57.813C257.516 58.509 260.271 59.292 262.765 60.162C265.317 60.974 267.347 62.221 268.855 63.903C270.363 65.527 271.117 67.876 271.117 70.95C271.175 73.618 270.479 76.025 269.029 78.171C267.579 80.317 265.491 81.999 262.765 83.217C260.039 84.435 256.82 85.044 253.108 85.044ZM315.26 103.14V77.823C313.868 79.737 312.012 81.419 309.692 82.869C307.43 84.319 304.472 85.044 300.818 85.044C296.758 85.044 293.133 84.058 289.943 82.086C286.753 80.114 284.23 77.417 282.374 73.995C280.518 70.573 279.59 66.687 279.59 62.337C279.59 57.987 280.518 54.13 282.374 50.766C284.23 47.344 286.753 44.676 289.943 42.762C293.133 40.79 296.758 39.804 300.818 39.804C304.066 39.804 306.908 40.413 309.344 41.631C311.78 42.849 313.752 44.56 315.26 46.764L316.478 40.848H326.396V103.14H315.26ZM303.167 75.3C306.763 75.3 309.692 74.111 311.954 71.733C314.274 69.297 315.434 66.194 315.434 62.424C315.434 58.654 314.274 55.58 311.954 53.202C309.692 50.766 306.763 49.548 303.167 49.548C299.629 49.548 296.7 50.737 294.38 53.115C292.06 55.493 290.9 58.567 290.9 62.337C290.9 66.107 292.06 69.21 294.38 71.646C296.7 74.082 299.629 75.3 303.167 75.3ZM353.918 85.044C348.524 85.044 344.348 83.362 341.39 79.998C338.49 76.634 337.04 71.704 337.04 65.208V40.848H348.089V64.164C348.089 67.876 348.843 70.718 350.351 72.69C351.859 74.662 354.237 75.648 357.485 75.648C360.559 75.648 363.082 74.546 365.054 72.342C367.084 70.138 368.099 67.064 368.099 63.12V40.848H379.235V84H369.404L368.534 76.692C367.2 79.244 365.257 81.274 362.705 82.782C360.211 84.29 357.282 85.044 353.918 85.044ZM390.667 84V40.848H400.585L401.629 48.939C403.195 46.155 405.312 43.951 407.98 42.327C410.706 40.645 413.896 39.804 417.55 39.804V51.549H414.418C411.982 51.549 409.807 51.926 407.893 52.68C405.979 53.434 404.471 54.739 403.369 56.595C402.325 58.451 401.803 61.032 401.803 64.338V84H390.667ZM445.363 85.044C441.013 85.044 437.156 84.116 433.792 82.26C430.428 80.404 427.789 77.794 425.875 74.43C423.961 71.066 423.004 67.18 423.004 62.772C423.004 58.306 423.932 54.333 425.788 50.853C427.702 47.373 430.312 44.676 433.618 42.762C436.982 40.79 440.926 39.804 445.45 39.804C449.684 39.804 453.425 40.732 456.673 42.588C459.921 44.444 462.444 46.996 464.242 50.244C466.098 53.434 467.026 57.001 467.026 60.945C467.026 61.583 466.997 62.25 466.939 62.946C466.939 63.642 466.91 64.367 466.852 65.121H434.053C434.285 68.485 435.445 71.124 437.533 73.038C439.679 74.952 442.26 75.909 445.276 75.909C447.538 75.909 449.423 75.416 450.931 74.43C452.497 73.386 453.657 72.052 454.411 70.428H465.721C464.909 73.154 463.546 75.648 461.632 77.91C459.776 80.114 457.456 81.854 454.672 83.13C451.946 84.406 448.843 85.044 445.363 85.044ZM445.45 48.852C442.724 48.852 440.317 49.635 438.229 51.201C436.141 52.709 434.807 55.029 434.227 58.161H455.716C455.542 55.319 454.498 53.057 452.584 51.375C450.67 49.693 448.292 48.852 445.45 48.852Z" fill="#1E293B"></path><path d="M93.655 84V40.848H103.486L104.356 48.156C105.69 45.604 107.604 43.574 110.098 42.066C112.65 40.558 115.637 39.804 119.059 39.804C124.395 39.804 128.542 41.486 131.5 44.85C134.458 48.214 135.937 53.144 135.937 59.64V84H124.801V60.684C124.801 56.972 124.047 54.13 122.539 52.158C121.031 50.186 118.682 49.2 115.492 49.2C112.36 49.2 109.779 50.302 107.749 52.506C105.777 54.71 104.791 57.784 104.791 61.728V84H93.655Z" fill="#1E293B"></path><path d="M166.378 85.044C170.728 85.044 174.585 84.116 177.949 82.26C181.313 80.404 183.952 77.794 185.866 74.43C187.78 71.066 188.737 67.18 188.737 62.772C188.737 58.306 187.809 54.333 185.953 50.853C184.039 47.373 181.429 44.676 178.123 42.762C174.759 40.79 170.815 39.804 166.291 39.804C162.057 39.804 158.316 40.732 155.068 42.588C151.82 44.444 149.297 46.996 147.499 50.244C145.643 53.434 144.715 57.001 144.715 60.945C144.715 61.583 144.744 62.25 144.802 62.946C144.802 63.642 144.831 64.367 144.889 65.121H177.688C177.456 68.485 176.296 71.124 174.208 73.038C172.062 74.952 169.481 75.909 166.465 75.909C164.203 75.909 162.318 75.416 160.81 74.43C159.244 73.386 158.084 72.052 157.33 70.428H146.02C146.832 73.154 148.195 75.648 150.109 77.91C151.965 80.114 154.285 81.854 157.069 83.13C159.795 84.406 162.898 85.044 166.378 85.044ZM166.291 48.852C169.017 48.852 171.424 49.635 173.512 51.201C175.6 52.709 176.934 55.029 177.514 58.161H156.025C156.199 55.319 157.243 53.057 159.157 51.375C161.071 49.693 163.449 48.852 166.291 48.852Z" fill="#1E293B"></path><path fill-rule="evenodd" clip-rule="evenodd" d="M61.6079 30.7506H14.863V76.2318H61.6079V30.7506ZM0.112366 16V90.9824H76.3585V16H0.112366Z" fill="#3B82F6"></path><path d="M32.0364 52.9454L41.495 61.6373L9.45861 91.0768L-1.79625e-05 82.3849L32.0364 52.9454Z" fill="#3B82F6"></path></svg>